<svg t="1726235362851" class="icon" viewBox="0 0 1024 1024" version="1.1" xmlns="http://www.w3.org/2000/svg" p-id="4624" width="256" height="256"><path d="M987.239196 519.869113a38.584036 38.584036 0 0 0-35.537927-22.338126h-5.076847a192.920178 192.920178 0 0 1-177.181954-117.782846 41.630144 41.630144 0 0 0-72.598909 0 193.427863 193.427863 0 0 1-181.243431 117.782846 36.553297 36.553297 0 0 0-35.537927 21.830441 272.626673 272.626673 0 0 0-26.399604 110.67526 280.241943 280.241943 0 0 0 86.306396 208.150719l169.058999 174.135845a38.076351 38.076351 0 0 0 27.414972 11.676748 38.076351 38.076351 0 0 0 27.414973-12.184432l166.01289-176.166584a278.718889 278.718889 0 0 0 57.876054-316.287556z m-111.690629 261.965295l-140.628657 149.259296-142.659395-146.720873a203.073872 203.073872 0 0 1-63.460585-152.305404 194.950917 194.950917 0 0 1 10.661378-58.891423 268.565196 268.565196 0 0 0 192.920179-105.090729 268.057511 268.057511 0 0 0 193.427863 105.090729 203.073872 203.073872 0 0 1-50.768468 208.150719z" fill="#1296db" p-id="4625"></path><path d="M826.810837 609.221616l-108.136837 108.136837-50.768468-50.768468A38.076351 38.076351 0 0 0 611.044848 719.896877l106.613783 106.613782 161.951413-161.951413A38.076351 38.076351 0 0 0 826.810837 609.221616z" fill="#1296db" p-id="4626"></path><path d="M592.260515 947.847298H412.032454l-10.661379-50.768468a38.076351 38.076351 0 0 0-23.353495-27.414973 370.609817 370.609817 0 0 1-90.367873-50.768468A38.076351 38.076351 0 0 0 255.665572 812.295488l-50.768468 17.261279-101.536936-179.212692 38.076351-34.014873a38.076351 38.076351 0 0 0 12.184432-34.014874 365.53297 365.53297 0 0 1-4.569162-56.352999 369.086763 369.086763 0 0 1 3.553793-47.214676 38.076351 38.076351 0 0 0-18.784333-31.984134l-41.122459-36.553297 101.536936-179.212693 50.768468 15.738226a37.568666 37.568666 0 0 0 35.537927-6.599901 371.117501 371.117501 0 0 1 89.352504-50.768468 38.076351 38.076351 0 0 0 22.845811-27.414973l11.169063-53.306891H611.044848l10.661379 50.768468a38.076351 38.076351 0 0 0 23.353495 27.414972 368.071393 368.071393 0 0 1 90.367873 50.768468 37.568666 37.568666 0 0 0 35.030243 6.092217l50.768468-17.26128 80.214179 134.028756A38.076351 38.076351 0 1 0 966.424124 322.379772l-93.921665-163.982152a38.076351 38.076351 0 0 0-44.676252-17.261279l-64.475955 20.307387a444.73178 444.73178 0 0 0-73.106594-41.122459l-12.692117-60.414477a38.076351 38.076351 0 0 0-37.060981-30.461081H372.433049a38.076351 38.076351 0 0 0-37.060982 30.461081L321.664581 124.890431a441.177987 441.177987 0 0 0-72.59891 43.153198l-58.383738-19.292018a38.076351 38.076351 0 0 0-44.676252 17.261279L11.469241 398.532474a38.076351 38.076351 0 0 0 7.61527 47.214675l50.768468 44.168567v36.553297a406.147744 406.147744 0 0 0 3.046108 47.214676l-46.199306 41.122459a38.076351 38.076351 0 0 0-7.61527 47.214675l134.53644 232.519584a38.076351 38.076351 0 0 0 44.676252 17.261279l63.460585-20.815072a447.270203 447.270203 0 0 0 73.106594 41.122459l12.692117 60.414477a38.076351 38.076351 0 0 0 37.060982 30.461081h211.196827a38.076351 38.076351 0 0 0 0-76.152702z" fill="#1296db" p-id="4627"></path><path d="M509.507912 360.963808a163.982152 163.982152 0 0 1 104.07536 36.553297 38.076351 38.076351 0 0 0 48.230044-58.891423 242.165592 242.165592 0 1 0-269.07288 400.055528 38.076351 38.076351 0 0 0 37.060981-66.506693A166.01289 166.01289 0 0 1 509.507912 360.963808z" fill="#1296db" p-id="4628"></path></svg>
