<svg t="1726152352977" class="icon" viewBox="0 0 1024 1024" version="1.1" xmlns="http://www.w3.org/2000/svg" p-id="8186" width="200" height="200"><path d="M127.999846 588.799117a332.799501 332.799501 0 0 0 621.208669 166.24615L409.599424 623.922264v-364.031454A332.901901 332.901901 0 0 0 127.999846 588.799117z m757.349264 109.055836l-18.431972 47.769529A435.301747 435.301747 0 0 1 25.6 588.799117 435.199347 435.199347 0 0 1 460.799347 153.59977h51.199923v400.076199l373.34984 144.178984z" fill="#1296db" p-id="8187"></path><path d="M666.111039 428.645757l228.095658 93.695859c1.177598-11.878382 1.791997-23.859164 1.791997-35.942346 0-154.726168-97.638254-284.978773-229.887655-322.149916v264.396403z m-47.206329-376.319435C832.920389 68.966297 998.398541 258.713212 998.398541 486.39927c0 41.215938-5.427192 81.715077-15.923176 120.627019l-15.206378 56.012716-403.506594-165.734151V48.076728l55.142317 4.300793z" fill="#1296db" p-id="8188"></path></svg>
