<?xml version="1.0" standalone="no"?><!DOCTYPE svg PUBLIC "-//W3C//DTD SVG 1.1//EN" "http://www.w3.org/Graphics/SVG/1.1/DTD/svg11.dtd"><svg t="1724683556620" class="icon" viewBox="0 0 1024 1024" version="1.1" xmlns="http://www.w3.org/2000/svg" p-id="15985" xmlns:xlink="http://www.w3.org/1999/xlink" width="200" height="200"><path d="M350.16 924.272a68.608 68.608 0 0 1-53.888-25.856L93.6 648.208c-13.248-16.64-18.544-38.112-13.248-58.72L152.32 277.088a68.896 68.896 0 0 1 37.536-46.448L483.52 91.712a71.776 71.776 0 0 1 30.032-7.008c10.592 0 20.752 2.192 30.016 7.008L836.8 230.176c18.976 9.216 33.12 25.856 37.536 46.464l72.416 312.416a68.64 68.64 0 0 1-13.248 58.72l-202.688 249.76a69.984 69.984 0 0 1-53.872 25.856l-326.784 0.88z" fill="#F16A69" p-id="15986"></path><path d="M806.768 567.584c-0.448 0-0.448 0 0 0h-0.448c-0.432 0-1.328 0-1.328-0.432-1.312 0-2.208-0.448-3.52-0.448-3.984-0.432-7.52-1.312-11.04-1.312-1.76 0-3.536 0-5.76-0.432h-0.432c-12.368-1.312-22.08-2.192-31.36-5.264-3.968-1.76-5.28-3.936-6.176-6.128 0-0.432-0.432-0.432-0.432-1.312l-7.52-2.192c3.536-26.288 2.208-53.904-3.968-81.072a229.008 229.008 0 0 0-32.672-75.36l5.728-5.264v-1.312c0-3.072 0.448-5.696 3.104-8.768 7.056-6.128 15.456-11.392 26.048-17.968 1.76-1.312 3.52-1.76 5.296-3.056 3.536-1.76 6.192-3.52 9.712-5.696 0.448-0.448 1.76-1.312 3.104-2.192 0.432-0.448 1.312-0.448 1.312-1.312 7.952-7.024 9.728-18.4 3.984-25.856a16.608 16.608 0 0 0-13.248-6.144c-4.864 0-8.832 1.76-12.8 4.832l-1.328 1.312c-1.328 0.432-1.76 1.76-3.104 2.192-3.088 3.056-5.28 5.248-7.504 7.888-1.328 1.312-2.208 3.056-3.968 3.936-7.952 8.768-15.456 15.344-23.408 20.592a10.88 10.88 0 0 1-5.296 1.76c-1.328 0-2.208 0-3.52-0.432h-1.344l-7.056 4.8c-7.52-7.872-15.456-14.88-23.84-21.904a230.24 230.24 0 0 0-121.008-47.76l-0.448-7.44-1.328-1.312c-1.76-1.76-3.968-3.52-4.848-7.456-0.448-9.2 0.448-19.728 1.76-31.104v-0.448c0-1.76 0.448-3.936 1.328-5.696 0.448-3.504 1.328-7.008 1.76-10.96v-5.248c0-10.528-7.936-18.848-18.096-18.848-4.864 0-9.28 2.192-12.8 5.696-3.536 3.52-5.312 8.32-5.312 13.152v4.816c0 3.952 0.448 7.456 1.76 10.96 0.448 1.76 0.448 3.504 1.344 5.696v0.432c1.312 11.392 3.088 21.92 1.76 31.12-0.448 3.936-3.088 5.696-4.864 7.44l-1.312 1.312-0.448 7.456c-10.608 1.312-20.752 2.192-31.36 4.816a225.92 225.92 0 0 0-114.816 64.416l-4.848-4.384h-1.328c-1.328 0-2.208 0.432-3.52 0.432a8.528 8.528 0 0 1-5.312-1.76c-7.52-5.248-15.008-12.688-23.408-21.456-1.328-1.312-2.208-3.072-3.968-3.936-2.208-3.072-4.864-5.28-7.52-7.904-0.432-0.432-1.76-1.312-3.088-2.176-0.432-0.448-1.312-0.448-1.312-1.312-3.536-3.072-7.952-4.384-12.8-4.832-5.312 0-10.608 2.192-13.264 6.144-5.744 7.44-3.968 18.832 3.984 25.84 0.432 0 0.432 0.448 1.312 0.448 1.328 0.432 1.76 1.76 3.104 2.192 3.52 2.192 6.176 3.936 9.712 5.696 1.76 0.432 3.52 1.76 5.296 3.072 10.592 6.128 18.992 11.392 26.048 17.952 3.104 3.072 3.104 5.696 3.104 8.768v1.312l5.728 5.264a29.44 29.44 0 0 0-3.088 4.816 219.264 219.264 0 0 0-32.24 151.616l-7.504 2.192c0 0.432-0.432 0.432-0.432 1.312a13.888 13.888 0 0 1-6.192 6.128c-8.832 3.072-18.992 3.952-31.36 5.28h-0.432c-1.76 0-3.968 0-5.744 0.416-3.52 0-7.056 0.448-11.04 1.328-1.312 0-2.208 0.432-3.52 0.432-0.448 0-1.328 0-1.76 0.432-10.608 2.192-16.8 12.272-15.04 21.472 1.776 7.888 9.28 13.152 18.56 13.152 1.76 0 3.088 0 4.848-0.432 0.448 0 1.328 0 1.328-0.448 1.328 0 2.208-0.432 3.536-0.432 3.984-1.312 7.072-2.192 10.592-3.952 1.76-0.432 3.536-1.76 5.312-2.192h0.432c11.04-3.936 20.752-7.44 30.032-8.752h1.328c3.52 0 5.744 1.76 7.504 3.056 0.448 0 0.448 0.448 1.328 0.448l7.952-1.312a228.864 228.864 0 0 0 75.952 108.224c7.952 6.128 16.336 11.84 24.72 16.64l-3.52 7.456c0 0.448 0.432 0.448 0.432 1.312a12.144 12.144 0 0 1 1.328 9.216c-3.52 8.752-8.832 17.088-15.008 27.168v0.432c-1.328 1.76-2.208 3.072-3.536 4.816-2.208 3.072-3.984 5.696-6.192 9.2a9.392 9.392 0 0 0-1.76 3.072c0 0.432-0.448 1.312-0.448 1.312-4.848 9.648-1.312 20.592 7.52 24.544a14.08 14.08 0 0 0 7.056 1.76c7.072 0 14.128-4.832 17.232-10.96 0-0.448 0.432-1.312 0.432-1.312 0.448-0.88 0.88-2.192 1.76-3.072 1.776-3.952 2.224-7.008 3.536-10.512l1.76-5.264c4-11.392 7.072-20.592 12.384-28.928 2.208-3.504 5.28-3.936 7.504-5.248 0.432 0 0.432 0 1.328-0.448l3.968-7.44c26.048 10.08 53.44 14.896 81.248 14.896 16.8 0 34.016-1.76 50.352-5.696 10.16-2.192 20.32-5.264 30.032-8.768l3.52 6.144c0.448 0 0.448 0 1.328 0.432 3.088 0.432 5.296 1.76 7.52 5.264 4.848 7.888 7.936 17.968 12.352 28.912v0.448l1.76 5.248c1.328 3.52 1.76 7.008 3.536 10.528 0.448 1.312 1.328 1.744 1.76 3.056 0 0.448 0.448 1.312 0.448 1.312 3.536 7.008 10.608 10.96 17.232 10.96a14.08 14.08 0 0 0 7.056-1.76c3.984-2.176 7.52-5.68 8.832-10.512 1.328-4.816 1.328-9.632-1.312-14.464 0-0.432-0.448-0.432-0.448-1.312-0.448-1.312-1.328-2.192-1.76-3.056-1.76-3.52-3.984-6.144-6.192-9.2-1.328-1.76-2.208-3.072-3.52-4.384v-0.448c-6.192-9.632-12.368-18.4-15.04-27.168-1.312-3.936 0-6.128 0.464-9.2 0-0.432 0.432-0.432 0.432-1.312l-3.088-7.008a219.728 219.728 0 0 0 76.4-74.064 230.288 230.288 0 0 0 24.288-51.696l7.056 1.312c0.448 0 0.448-0.432 1.328-0.432 2.208-1.328 3.968-3.072 7.52-3.072h1.312c9.28 1.312 18.992 4.816 30.032 8.768h0.432c1.76 0.432 3.536 1.76 5.312 2.176 3.52 1.76 6.176 3.072 10.592 3.952 1.328 0 2.208 0.432 3.52 0.432 0.448 0 1.344 0 1.776 0.448 1.76 0.432 3.088 0.432 4.864 0.432 8.832 0 16.336-5.696 18.544-13.136-1.76-6.144-7.952-15.344-18.56-18.4z m-268.48-28.032l-25.632 12.256-25.6-12.256-6.192-27.168 17.232-21.92h28.256l17.216 21.92-5.28 27.168z m151.456-60.032c4.848 19.712 5.744 38.992 3.968 58.272l-88.752-25.408a15.744 15.744 0 0 1-11.04-18.4 12.48 12.48 0 0 1 3.52-6.144l70.224-62.656a182.96 182.96 0 0 1 22.08 54.336z m-49.904-88.96l-75.952 53.456a15.76 15.76 0 0 1-20.32-3.504c-1.76-1.76-2.208-3.936-3.088-6.128l-5.296-93.776a175.392 175.392 0 0 1 104.656 49.952z m-167.808-47.328c6.192-1.312 12.368-2.192 18.56-3.504l-5.312 92.016c-0.432 7.888-7.056 14.912-15.456 14.912-2.208 0-5.296-0.448-7.056-1.76l-77.28-54.336a177.2 177.2 0 0 1 86.56-47.328z m-114.368 81.952l68.88 60.896a15.552 15.552 0 0 1 1.76 21.472 13.632 13.632 0 0 1-7.04 4.832l-89.664 25.84c-3.52-39.424 5.312-79.312 26.064-113.04z m-15.456 155.552l92.288-15.344c7.52-0.432 14.576 4.832 16.336 12.272 0.448 3.52 0.448 6.144-0.432 9.2l-35.328 84.576c-34-21.92-59.616-53.456-72.864-90.72z m211.072 114.368c-13.248 3.056-26.48 4.816-40.624 4.816-20.32 0-40.176-3.504-58.72-9.2l45.92-82.384c4.848-5.248 12.368-7.44 18.56-3.936 3.072 1.76 5.28 3.936 7.04 6.128l44.608 79.76c-4.848 2.176-10.592 3.504-16.768 4.8z m113.056-79.76c-14.56 22.8-33.568 41.2-55.632 55.664l-36.656-86.768a15.84 15.84 0 0 1 7.936-17.968c2.224-1.312 5.312-1.76 7.952-1.76l92.736 15.36c-2.64 13.12-8.832 24.528-16.32 35.488z" fill="#FFFFFF" p-id="15987"></path></svg>