<?xml version="1.0" standalone="no"?><!DOCTYPE svg PUBLIC "-//W3C//DTD SVG 1.1//EN" "http://www.w3.org/Graphics/SVG/1.1/DTD/svg11.dtd"><svg t="1724683266252" class="icon" viewBox="0 0 1024 1024" version="1.1" xmlns="http://www.w3.org/2000/svg" p-id="8815" xmlns:xlink="http://www.w3.org/1999/xlink" width="200" height="200"><path d="M426.666667 170.666667H170.666667c-47.36 0-85.333333 37.973333-85.333334 85.333333v512c0 46.805333 38.528 85.333333 85.333334 85.333333h682.666666c46.805333 0 85.333333-38.528 85.333334-85.333333V341.333333a85.333333 85.333333 0 0 0-85.333334-85.333333h-341.333333l-85.333333-85.333333z" fill="#64B5F6" p-id="8816"></path><path d="M974.677333 484.48a41.386667 41.386667 0 0 0-20.48-23.637333l-194.986666-93.354667a35.754667 35.754667 0 0 0-15.957334-3.2c-5.12 0-10.88 0-16 1.28l-194.986666 93.994667a34.346667 34.346667 0 0 0-19.2 23.637333l-48.554667 210.346667a40.32 40.32 0 0 0 7.04 30.677333l134.869333 166.826667c7.68 7.68 18.56 12.8 29.44 13.44h215.424c11.52 1.28 22.357333-3.84 29.44-13.397334l134.826667-166.869333c6.4-8.96 8.96-19.797333 7.68-30.72z" fill="#326DE6" p-id="8817"></path><path d="M943.786667 685.226667c-0.597333 0-0.597333 0-0.597334-0.64s-1.92-0.64-2.56-0.64c-2.56-0.64-5.12-0.64-7.68-0.64-1.28 0-2.56 0-3.84-0.64h-0.64a129.194667 129.194667 0 0 1-21.76-3.84 7.722667 7.722667 0 0 1-4.437333-4.48c0-0.64-0.64-0.64-0.64-0.64l-5.12-1.28a166.826667 166.826667 0 0 0-2.56-56.277334 173.141333 173.141333 0 0 0-22.357333-52.394666l3.84-3.84v-0.64c0-1.92 0.64-4.48 1.92-5.76 5.717333-4.48 11.52-8.96 17.92-12.16l3.797333-1.92c2.56-1.28 4.48-2.56 7.04-3.84 0.64-0.64 1.28-0.64 1.92-1.28l0.64-0.64c5.76-4.437333 7.04-12.117333 2.56-17.92a12.202667 12.202667 0 0 0-8.96-4.437334c-3.2 0-6.4 1.28-8.96 3.2l-0.64 0.64c-0.64 0.64-1.28 1.28-1.92 1.28-1.92 1.92-3.84 3.84-5.12 5.76-0.64 1.28-1.92 1.92-2.56 2.56-5.12 5.12-10.24 10.24-15.957333 14.08-1.28 0.597333-2.56 1.28-3.84 1.28-0.64 0-1.92 0-2.56-0.682666l-5.12 3.84c-5.12-5.12-10.88-10.24-15.957334-15.36a163.84 163.84 0 0 0-83.114666-33.237334l-0.64-5.12-0.64-0.597333c-1.92-1.28-2.56-3.2-3.2-5.12 0-7.04 0-14.08 1.28-21.76v-0.64c0-1.28 0.64-2.56 0.64-3.84 0.64-2.56 0.64-5.12 1.28-7.68v-3.84c0.64-6.4-4.48-12.757333-10.88-12.757333a14.506667 14.506667 0 0 0-10.24 3.84 12.629333 12.629333 0 0 0-3.84 8.96v3.2c0 2.56 0.64 5.12 1.28 7.68 0.64 1.28 0.64 2.56 0.64 3.84v0.597333c1.28 7.04 1.28 14.08 1.28 21.76-0.64 1.92-1.28 3.84-3.2 5.12l-0.64 0.64-0.597334 5.12c-7.04 0.597333-14.08 1.877333-21.76 3.157333a152.405333 152.405333 0 0 0-78.634666 44.8l-3.84-2.56h-0.64c-0.64 0-1.28 0.597333-2.56 0.597334s-3.2-0.64-3.84-1.28c-5.717333-4.48-10.837333-9.557333-15.957334-14.677334-0.64-1.28-1.92-1.92-2.56-2.56-1.92-1.92-3.2-3.84-5.12-5.76-0.64-0.64-1.28-0.64-1.92-1.28l-0.64-0.64a15.274667 15.274667 0 0 0-8.96-3.2 11.52 11.52 0 0 0-9.557333 4.48 13.738667 13.738667 0 0 0 2.56 17.92c0.597333 0 0.597333 0.597333 0.597333 0.597334s1.28 1.28 1.92 1.28c1.92 1.28 4.48 2.56 7.04 3.84l3.84 1.92c6.4 3.84 12.16 7.68 17.92 12.16 1.28 1.28 2.56 3.84 1.92 5.76v0.64l3.84 3.84c-0.64 1.28-1.28 1.92-1.92 3.2a151.466667 151.466667 0 0 0-21.76 104.832l-5.12 1.28c0 0.64-0.64 0.64-0.64 0.64-0.64 1.92-2.56 3.2-4.48 4.48-6.997333 1.92-14.08 3.2-21.717333 3.84h-0.64c-1.28 0-2.56 0-3.84 0.64-2.56 0-5.12 0.64-7.68 0.64-0.64 0-1.28 0.64-2.56 0.64-0.64 0-0.64 0-1.28 0.64a12.458667 12.458667 0 0 0-10.24 14.677333c1.28 5.76 7.04 9.6 12.8 8.96 1.28 0 1.92 0 3.2-0.64 0.64 0 0.64 0 0.64-0.64s1.28-0.64 2.56-0.64c2.56-0.64 5.12-1.92 7.04-2.56 1.28-0.64 2.56-1.28 3.84-1.28h0.64c6.4-2.56 13.397333-4.48 20.48-5.76h0.597333a7.253333 7.253333 0 0 1 5.12 1.92c0.64 0 0.64 0.64 0.64 0.64l5.76-0.64c9.6 29.44 27.477333 55.637333 52.437334 74.794667 5.717333 4.48 10.837333 8.32 17.237333 11.52l-2.56 5.12c0 0.64 0.64 0.64 0.64 0.64 1.28 1.92 1.28 4.48 0.64 6.4-2.56 6.4-6.4 12.8-10.24 18.517333v0.64c-0.64 1.28-1.28 1.92-2.56 3.2s-2.56 3.84-4.437333 6.4c-0.64 0.64-0.64 1.28-1.28 1.92 0 0 0 0.64-0.64 0.64a13.141333 13.141333 0 0 0 5.12 17.237333c1.28 0.64 3.157333 1.28 5.12 1.28 5.12 0 9.557333-3.2 12.117333-7.68 0 0 0-0.597333 0.64-0.597333 0-0.64 0.64-1.28 1.28-1.92 0.64-2.56 1.92-4.48 2.56-7.04l1.28-3.84c1.92-7.04 5.12-13.44 8.32-19.84a9.941333 9.941333 0 0 1 5.12-3.84c0.64 0 0.64 0 0.64-0.597333l2.56-5.12c17.877333 6.997333 36.437333 10.24 55.594667 10.24 11.52 0 23.04-1.28 34.56-3.84 6.997333-1.28 14.037333-3.84 20.437333-5.76l2.56 4.48c0.64 0 0.64 0 0.64 0.597333 1.877333 0.64 3.84 1.92 5.12 3.84 3.157333 6.4 5.717333 12.8 8.277333 19.2v0.64l1.28 3.84c0.64 2.56 1.28 5.12 2.56 7.04 0.64 0.64 0.64 1.28 1.28 1.92 0 0 0 0.64 0.64 0.64 2.56 4.437333 7.04 7.68 12.16 7.68 1.92 0 3.2-0.682667 5.12-1.28a10.666667 10.666667 0 0 0 5.717334-7.04 18.645333 18.645333 0 0 0-0.64-10.24c0-0.64-0.64-0.64-0.64-0.64 0-0.64-0.64-1.28-1.28-1.92a22.912 22.912 0 0 0-4.437334-6.4 11.221333 11.221333 0 0 0-2.56-3.2v-0.64a75.52 75.52 0 0 1-10.24-18.517333 7.552 7.552 0 0 1 0.64-6.4c0-0.64 0.64-0.64 0.64-0.64l-1.92-5.12a159.146667 159.146667 0 0 0 69.674667-86.954667l5.12 0.64c0.64 0 0.64-0.64 0.64-0.64a7.253333 7.253333 0 0 1 5.12-1.92h0.64c7.04 1.28 14.08 3.2 20.48 5.76h0.597333c1.28 0.64 2.56 1.28 3.84 1.28a31.146667 31.146667 0 0 0 7.04 2.56c0.64 0 1.28 0.64 2.56 0.64 0.64 0 0.64 0 1.28 0.64 1.28 0.64 1.92 0.64 3.2 0.64 5.76 0 10.88-3.84 12.8-8.96-1.92-6.4-6.4-11.52-12.8-12.8z m-184.064-19.84l-17.28 8.32-17.237334-8.32-5.12-18.517334 12.117334-15.36h19.84l12.16 15.36z m104.192-41.557334c3.2 13.44 3.84 26.88 2.56 40.277334l-60.757334-17.237334c-5.717333-1.28-8.96-7.04-7.68-12.8a10.282667 10.282667 0 0 1 2.56-4.48l47.957334-43.477333c7.04 11.52 12.16 24.32 15.36 37.717333z m-34.56-61.354666l-51.754667 37.077333c-4.48 2.56-10.88 1.92-14.08-2.56a5.802667 5.802667 0 0 1-1.877333-4.48l-3.84-64.554667c26.837333 3.2 52.394667 15.36 71.594666 34.517334z m-115.669334-32.597334l12.8-2.56-3.84 63.914667c0 5.76-5.12 10.24-10.88 10.24-1.92 0-3.2-0.64-5.12-1.28l-51.797333-37.717333a121.941333 121.941333 0 0 1 58.837333-32.597334z m-77.994666 56.234667l47.317333 42.197333c4.437333 3.84 5.12 10.24 1.28 14.72-1.28 1.92-2.56 2.56-5.12 3.2l-61.397333 17.92c-2.56-26.88 3.84-54.357333 17.92-78.037333z m-10.88 108.032l63.274666-10.837333c5.12 0 10.24 3.2 10.88 8.277333a7.552 7.552 0 0 1-0.64 6.4l-24.32 58.837333a125.781333 125.781333 0 0 1-49.194666-62.677333z m145.109333 79.274667c-8.96 1.92-18.517333 3.2-28.117333 3.2-13.44 0-27.477333-2.56-40.277334-6.4l31.317334-56.874667a9.898667 9.898667 0 0 1 12.8-2.56c1.92 1.28 3.2 2.56 5.12 4.48l30.677333 55.594667c-3.2 0.64-7.04 1.28-11.52 2.56z m77.994667-55.594667c-9.6 15.36-23.04 28.757333-38.357334 38.357333l-24.917333-59.477333a10.794667 10.794667 0 0 1 5.76-12.8 18.645333 18.645333 0 0 1 5.76-1.28l63.914667 10.88c-3.2 8.96-7.04 17.28-12.16 24.32z" fill="#FFFFFF" p-id="8818"></path></svg>