<?xml version="1.0" standalone="no"?><!DOCTYPE svg PUBLIC "-//W3C//DTD SVG 1.1//EN" "http://www.w3.org/Graphics/SVG/1.1/DTD/svg11.dtd"><svg t="1724683344227" class="icon" viewBox="0 0 1024 1024" version="1.1" xmlns="http://www.w3.org/2000/svg" p-id="8971" xmlns:xlink="http://www.w3.org/1999/xlink" width="200" height="200"><path d="M508.80832 15.232a68.48 68.48 0 0 0-26.336 6.976L125.83232 192.32a67.552 67.552 0 0 0-36.8 45.824L1.73632 619.936c-4.16 17.92-0.8 36.704 9.6 52.064q1.824 2.784 3.84 5.376l246.4 306.368c13.024 16 32.576 25.184 53.184 25.088h395.2c20.672 0.032 40.256-9.6 53.248-25.376l246.272-306.432c12.928-16 17.76-37.12 12.8-57.152L934.40832 237.76a67.712 67.712 0 0 0-36.8-45.824L541.54432 22.24A68.48 68.48 0 0 0 508.48832 15.232z" fill="#326CE5" p-id="8972"></path><path d="M512.07232 145.344a22.56 22.56 0 0 0-20.96 23.68v6.016c0.576 6.816 1.6 13.568 2.944 20.256a199.04 199.04 0 0 1 2.112 38.72 23.36 23.36 0 0 1-6.976 11.04l-0.48 9.024a279.04 279.04 0 0 0-38.496 5.952 274.048 274.048 0 0 0-139.328 79.52l-7.68-5.44a16.544 16.544 0 0 1-12.64-1.28 199.04 199.04 0 0 1-28.704-25.92 177.6 177.6 0 0 0-13.984-14.88l-4.736-3.776a25.6 25.6 0 0 0-14.816-5.6 20.48 20.48 0 0 0-16.992 7.552 22.592 22.592 0 0 0 5.248 31.456l4.416 3.52a177.6 177.6 0 0 0 17.664 10.336c11.328 6.304 22.016 13.696 31.936 22.4a23.68 23.68 0 0 1 4.256 12.288l6.976 6.4a275.808 275.808 0 0 0-43.456 192.192l-8.96 2.56a29.248 29.248 0 0 1-9.152 9.216 199.04 199.04 0 0 1-38.208 6.304 178.24 178.24 0 0 0-20.48 1.6l-5.664 1.28h-0.64a21.44 21.44 0 0 0-12.384 36.224 21.44 21.44 0 0 0 21.888 5.28h0.416l5.76-0.64c6.496-1.92 12.896-4.288 19.136-6.976 12-4.8 24.448-8.48 37.184-10.88a23.36 23.36 0 0 1 12.224 4.32l9.6-1.6a277.216 277.216 0 0 0 122.88 153.696l-3.904 8.16a21.344 21.344 0 0 1 1.92 12.032 206.624 206.624 0 0 1-19.296 34.944 178.56 178.56 0 0 0-11.456 17.056l-2.72 5.76a21.44 21.44 0 0 0 20.8 32.032 21.44 21.44 0 0 0 17.696-13.824l2.656-5.44c2.432-6.4 4.48-12.928 6.144-19.52 5.664-13.984 8.736-28.992 16.48-38.272a17.28 17.28 0 0 1 9.152-4.48l4.8-8.736a275.84 275.84 0 0 0 196.672 0.48l4.256 8.16a16.64 16.64 0 0 1 10.88 6.56c6.016 11.456 10.88 23.456 14.592 35.84a178.24 178.24 0 0 0 6.208 19.552l2.656 5.44a21.44 21.44 0 0 0 37.984 4.192 21.44 21.44 0 0 0 0.512-22.432l-2.784-5.76a177.6 177.6 0 0 0-11.456-16.992 226.528 226.528 0 0 1-19.2-33.824 16.64 16.64 0 0 1 2.176-12.8 73.28 73.28 0 0 1-3.552-8.608 277.6 277.6 0 0 0 122.336-154.24l9.088 1.6a16.96 16.96 0 0 1 11.936-4.416c12.704 2.432 25.152 6.4 37.184 10.88 6.24 2.88 12.64 5.312 19.136 7.36 1.536 0.416 3.776 0.768 5.504 1.184h0.416a21.44 21.44 0 0 0 26.912-27.232 21.44 21.44 0 0 0-17.408-14.272l-6.208-1.472a178.24 178.24 0 0 0-20.48-1.6 195.2 195.2 0 0 1-38.208-6.304 24.064 24.064 0 0 1-9.216-9.216l-8.64-2.56a276.8 276.8 0 0 0-44.352-191.776l7.552-6.976a16.864 16.864 0 0 1 3.968-12.096 200.96 200.96 0 0 1 31.68-22.272 178.24 178.24 0 0 0 17.664-10.336l4.672-3.776a21.44 21.44 0 0 0-4.256-38.464 21.44 21.44 0 0 0-22.272 5.152l-4.736 3.776a178.24 178.24 0 0 0-13.984 14.88 199.584 199.584 0 0 1-27.936 26.336 23.68 23.68 0 0 1-12.928 1.408l-8.096 5.76a279.552 279.552 0 0 0-177.12-85.44c0-3.2-0.416-8-0.48-9.504a16.8 16.8 0 0 1-6.976-10.624 199.36 199.36 0 0 1 2.432-38.624c1.376-6.72 2.336-13.44 2.944-20.256v-6.4a22.528 22.528 0 0 0-20.96-23.68z m-26.688 165.312l-6.4 111.776h-0.48c-0.32 6.912-4.384 12.8-10.624 16.128s-13.632 2.336-19.2-1.728l-91.68-64.96a219.52 219.52 0 0 1 105.696-57.568c7.488-1.6 15.04-2.816 22.624-3.648z m53.376 0a221.568 221.568 0 0 1 127.68 61.568l-90.816 64.544a18.816 18.816 0 0 1-30.528-14.464z m-215.04 103.264l83.84 74.816v0.48a18.816 18.816 0 0 1-7.392 32.288v0.32l-107.584 30.944a219.52 219.52 0 0 1 31.168-138.88z m376.096 0a223.424 223.424 0 0 1 32.064 138.464l-107.744-31.04v-0.416c-6.72-1.824-11.84-7.168-13.344-13.92s0.736-13.76 5.952-18.368l83.2-74.464z m-204.928 80.64h34.304l20.96 26.624-7.616 33.28-30.816 14.816-30.88-14.816-7.264-33.28z m109.888 90.816a19.456 19.456 0 0 1 4.32 0l110.944 18.72a218.112 218.112 0 0 1-88.8 111.776l-42.88-103.808a18.88 18.88 0 0 1 16.288-26.208z m-186.336 0.48a18.88 18.88 0 0 1 16.992 26.176v0.416l-42.624 102.976A220.16 220.16 0 0 1 304.55232 604.8l109.984-18.656a17.984 17.984 0 0 1 3.712 0z m92.928 44.8a18.88 18.88 0 0 1 17.184 9.856h0.416l54.208 97.824-21.664 6.4a220.608 220.608 0 0 1-120.256-6.208l54.4-97.824a18.88 18.88 0 0 1 16-9.44z" fill="#FFFFFF" p-id="8973"></path></svg>