<svg t="1726152563556" class="icon" viewBox="0 0 1024 1024" version="1.1" xmlns="http://www.w3.org/2000/svg" p-id="12412" width="256" height="256"><path d="M512 542.72L286.72 412.16V151.04L512 20.48l225.28 130.56v261.12L512 542.72zM339.2 381.44L512 481.28l172.8-99.84V181.76L512 81.92l-172.8 99.84v199.68zM776.96 1006.08L551.68 875.52V614.4l225.28-130.56L1002.24 614.4v261.12L776.96 1006.08zM602.88 844.8l172.8 99.84L949.76 844.8V645.12l-172.8-99.84-172.8 99.84V844.8zM247.04 1006.08L21.76 875.52V614.4l225.28-130.56L473.6 614.4v261.12L247.04 1006.08zM74.24 844.8l172.8 99.84L421.12 844.8V645.12l-172.8-99.84-174.08 99.84V844.8z" fill="#1296db" p-id="12413" data-spm-anchor-id="a313x.search_index.0.i11.79873a81Np6JoH" class="selected"></path></svg>
