<svg t="1726152944479" class="icon" viewBox="0 0 1024 1024" version="1.1" xmlns="http://www.w3.org/2000/svg" p-id="18369" width="256" height="256"><path d="M23.08608 227.77856c0-37.19168 21.504-73.76384 63.75424-104.66816C166.6048 64.75264 326.92736 23.1936 512 23.1936c185.07776 0 345.3952 41.56416 425.1648 99.92192 42.24 30.90432 63.75424 67.47648 63.75424 104.66816v585.28768c0 10.4448-5.2224 19.67104-13.18912 25.22624-10.57792 19.456-27.47392 38.0416-50.56512 54.93248-79.7696 58.35776-240.08704 99.92192-425.1648 99.92192-185.07264 0-345.3952-41.56416-425.1648-99.92192-23.0912-16.896-39.9872-35.4816-50.56-54.9376a30.68928 30.68928 0 0 1-13.18912-25.22112V227.77856z m916.39296 0c0-12.2368-6.07232-23.6544-15.73888-34.6624-13.02528-14.83776-32.2304-28.35456-56.1152-40.70912C787.43552 110.8992 657.88416 84.62848 512 84.62848c-145.87904 0-275.4304 26.27584-355.61984 67.77856-23.8848 12.35456-43.08992 25.87136-56.1152 40.70912-9.6768 11.008-15.73888 22.4256-15.73888 34.6624 0 12.2368 6.0672 23.64416 15.73888 34.65728 13.02528 14.83776 32.2304 28.34944 56.1152 40.71424C236.5696 344.64256 366.12096 370.9184 512 370.9184c145.88416 0 275.43552-26.27584 355.62496-67.76832 23.8848-12.3648 43.08992-25.87648 56.1152-40.71424 9.66656-11.01312 15.73888-22.4256 15.73888-34.6624z m0 560.77824v-457.8304l-2.31424 1.7152C857.3952 390.79936 697.07776 432.3584 512 432.3584c-185.07264 0-345.3952-41.55904-425.1648-99.9168a302.44864 302.44864 0 0 1-2.30912-1.72032v457.83552c0 12.2368 6.0672 23.6544 15.73888 34.66752 13.02528 14.83264 32.2304 28.34944 56.1152 40.704 80.18944 41.50272 209.7408 67.77856 355.61984 67.77856 145.88416 0 275.43552-26.27584 355.62496-67.77856 23.8848-12.35456 43.08992-25.87136 56.1152-40.704 9.66656-11.01312 15.73888-22.4256 15.73888-34.6624z m-60.27264-117.8624a30.73536 30.73536 0 0 1 41.9328 11.35616 30.73536 30.73536 0 0 1-11.34592 41.9328c-85.3504 48.97792-231.59808 82.23232-397.79328 82.23232-166.8608 0-313.63072-33.53088-398.83776-82.8416a30.73536 30.73536 0 0 1-11.20256-41.97376 30.73536 30.73536 0 0 1 41.97376-11.20256c78.55616 45.4656 214.23104 74.57792 368.06656 74.57792 153.2672 0 288.50176-28.90752 367.2064-74.08128z m0-199.424a30.73536 30.73536 0 0 1 41.9328 11.34592 30.73536 30.73536 0 0 1-11.34592 41.9328c-85.3504 48.98304-231.59808 82.23744-397.79328 82.23744-166.8608 0-313.63072-33.536-398.83776-82.8416a30.73536 30.73536 0 0 1-11.20256-41.97888 30.73536 30.73536 0 0 1 41.97376-11.20256c78.55616 45.4656 214.23104 74.58304 368.06656 74.58304 153.2672 0 288.50176-28.90752 367.2064-74.08128z" fill="#1296db" p-id="18370"></path></svg>
